<?xml version="1.0" encoding="UTF-8"?>
<svg version="1.1" xmlns="http://www.w3.org/2000/svg" width="500" height="553">
<path d="M0 0 C2.05388996 1.12653536 4.08348205 2.2858693 6.10546875 3.46875 C8.69848635 4.96288409 11.32676573 6.37555578 13.96875 7.78125 C24.93553787 13.62233493 35.78528764 19.66372967 46.58911133 25.80004883 C53.93272345 29.97019585 61.30296299 34.09028328 68.6875 38.1875 C69.81502686 38.81309814 70.94255371 39.43869629 72.10424805 40.08325195 C74.39911527 41.35603957 76.69411914 42.62858084 78.98925781 43.90087891 C98.52752481 54.73241605 118.03653462 65.61487185 137.52148438 76.54199219 C149.31446498 83.1545648 161.11600036 89.75102543 172.9375 96.3125 C176.31300181 98.18734569 179.68832017 100.06252083 183.06347656 101.93798828 C185.32553923 103.19472614 187.58791259 104.45090493 189.85058594 105.70654297 C197.06345825 109.71173279 204.26046063 113.74344711 211.4375 117.8125 C212.17291016 118.22612793 212.90832031 118.63975586 213.66601562 119.06591797 C223.08492703 124.39724542 231.18082991 129.99918401 234.4375 140.8125 C234.8649801 144.41393716 234.85121513 147.98591474 234.83190918 151.60945129 C234.83800028 152.68643443 234.84409139 153.76341757 234.85036707 154.87303656 C234.86699599 158.47641914 234.86222124 162.0794483 234.85742188 165.68286133 C234.86476227 168.26862454 234.87334841 170.85438448 234.88308716 173.44013977 C234.90411473 179.73181112 234.90868353 186.02339026 234.90689927 192.3150926 C234.9055902 197.43117486 234.90940317 202.54722842 234.91682434 207.66330528 C234.91892361 209.13857561 234.92102121 210.61384594 234.92311716 212.08911628 C234.92468245 213.19064702 234.92468245 213.19064702 234.92627937 214.31443091 C234.94517123 228.19522774 234.94413489 242.07597169 234.93731004 255.95677605 C234.93173633 268.64344989 234.95255447 281.32992168 234.98567051 294.01654831 C235.01943951 307.05491868 235.03457179 320.09319234 235.02995348 333.13160723 C235.0277119 340.44695708 235.03290606 347.76212023 235.05784607 355.07743263 C235.0811057 361.95826007 235.07823745 368.83866082 235.05791855 375.71949577 C235.05450789 378.24218192 235.05959986 380.76489634 235.07390213 383.28754425 C235.09210684 386.73705095 235.07933415 390.18513354 235.05895996 393.63459778 C235.07147781 394.62790488 235.08399566 395.62121197 235.09689283 396.64461929 C234.99490969 404.72364653 232.52062165 411.06808483 227.37158203 417.3215332 C221.73031682 422.07719632 215.86863171 425.63761871 209.3125 429 C207.17217154 430.12830292 205.03287313 431.25856165 202.89453125 432.390625 C201.8163916 432.95845703 200.73825195 433.52628906 199.62744141 434.11132812 C194.70227659 436.73788166 189.84987274 439.48754211 185 442.25 C183.09255545 443.33352266 181.18500241 444.41685436 179.27734375 445.5 C178.3219873 446.04269531 177.36663086 446.58539063 176.38232422 447.14453125 C171.28589479 450.03118403 166.17420025 452.89050223 161.0625 455.75 C160.02504639 456.33056152 158.98759277 456.91112305 157.91870117 457.50927734 C153.70330916 459.86780794 149.48738243 462.22538191 145.27148438 464.58300781 C134.14779032 470.80444386 123.02937595 477.03447534 111.9375 483.3125 C98.74105826 490.78171324 85.50618279 498.181864 72.27148438 505.58300781 C61.14778857 511.80444484 50.02953156 518.03474808 38.9375 524.3125 C30.63136106 529.01133119 22.32041563 533.70148805 14 538.375 C12.96359375 538.95894531 11.9271875 539.54289063 10.859375 540.14453125 C-6.54679638 549.90841244 -6.54679638 549.90841244 -15.1875 550.125 C-16.14914063 550.16238281 -17.11078125 550.19976563 -18.1015625 550.23828125 C-27.05208677 549.13714452 -35.09475615 544.10209264 -42.875 539.8125 C-43.92260498 539.23999512 -44.97020996 538.66749023 -46.04956055 538.07763672 C-53.55492773 533.9600892 -61.00096558 529.74370556 -68.41967773 525.47241211 C-75.55365253 521.36942483 -82.73829102 517.36226202 -89.9375 513.375 C-99.31812742 508.17834748 -108.67355625 502.94063249 -118.00390625 497.65429688 C-124.97087182 493.70827696 -131.950365 489.7851917 -138.9375 485.875 C-139.97519531 485.29427734 -141.01289063 484.71355469 -142.08203125 484.11523438 C-145.24198965 482.34730226 -148.40219578 480.57981386 -151.5625 478.8125 C-164.6916297 471.47039261 -177.81215906 464.11421411 -190.90332031 456.70458984 C-197.90494655 452.74386833 -204.91830016 448.80448434 -211.9375 444.875 C-213.47748657 444.01165039 -213.47748657 444.01165039 -215.04858398 443.13085938 C-220.49571891 440.07920505 -225.95087515 437.04311058 -231.41796875 434.02734375 C-232.54090332 433.40529053 -233.66383789 432.7832373 -234.82080078 432.14233398 C-236.95839189 430.95855643 -239.09853328 429.77936737 -241.24169922 428.60571289 C-251.53405144 422.89389187 -262.05460523 416.82237375 -265.5625 404.8125 C-265.98580688 401.21047645 -265.97621595 397.63924007 -265.95690918 394.01554871 C-265.96300028 392.93856557 -265.96909139 391.86158243 -265.97536707 390.75196344 C-265.99199599 387.14858086 -265.98722124 383.5455517 -265.98242188 379.94213867 C-265.98976227 377.35637546 -265.99834841 374.77061552 -266.00808716 372.18486023 C-266.02911473 365.89318888 -266.03368353 359.60160974 -266.03189927 353.3099074 C-266.0305902 348.19382514 -266.03440317 343.07777158 -266.04182434 337.96169472 C-266.04392361 336.48642439 -266.04602121 335.01115406 -266.04811716 333.53588372 C-266.04916069 332.80152989 -266.05020422 332.06717606 -266.05127937 331.31056909 C-266.07017123 317.42977226 -266.06913489 303.54902831 -266.06231004 289.66822395 C-266.05673633 276.98155011 -266.07755447 264.29507832 -266.11067051 251.60845169 C-266.14443951 238.57008132 -266.15957179 225.53180766 -266.15495348 212.49339277 C-266.1527119 205.17804292 -266.15790606 197.86287977 -266.18284607 190.54756737 C-266.2061057 183.66673993 -266.20323745 176.78633918 -266.18291855 169.90550423 C-266.17950789 167.38281808 -266.18459986 164.86010366 -266.19890213 162.33745575 C-266.21710684 158.88794905 -266.20433415 155.43986646 -266.18395996 151.99040222 C-266.19647781 150.99709512 -266.20899566 150.00378803 -266.22189283 148.98038071 C-266.12024501 140.92791695 -263.64383748 134.63381385 -258.58007812 128.35400391 C-252.26261503 122.97919079 -245.36955121 119.06041477 -238.0625 115.1875 C-236.77367579 114.49241533 -235.48560176 113.7959381 -234.19824219 113.09814453 C-231.58034169 111.67975886 -228.95997481 110.26610336 -226.33789062 108.85546875 C-220.79318749 105.86438636 -215.30275063 102.77708069 -209.8125 99.6875 C-207.76569596 98.53893604 -205.71882113 97.39049821 -203.671875 96.2421875 C-202.66576172 95.67725586 -201.65964844 95.11232422 -200.62304688 94.53027344 C-195.43844134 91.62034327 -190.25027228 88.7167795 -185.0625 85.8125 C-182.97915002 84.64586306 -180.89581668 83.47919641 -178.8125 82.3125 C-149.64583333 65.97916667 -120.47916667 49.64583333 -91.3125 33.3125 C-90.28068604 32.73467773 -89.24887207 32.15685547 -88.18579102 31.56152344 C-86.10817651 30.39807231 -84.03053989 29.23466067 -81.95288086 28.07128906 C-76.65686483 25.10575268 -71.36126742 22.1394729 -66.06640625 19.171875 C-60.86023543 16.25409642 -55.65243358 13.33924604 -50.44384766 10.42578125 C-47.68367283 8.88034529 -44.9256747 7.33108585 -42.16796875 5.78125 C-40.54956127 4.87485338 -38.93107688 3.96859408 -37.3125 3.0625 C-36.59199463 2.65612305 -35.87148926 2.24974609 -35.12915039 1.83105469 C-23.89186228 -4.44433164 -11.74720138 -6.15642633 0 0 Z " fill="#00599C" transform="translate(265.5625,3.1875)"/>
<path d="M0 0 C0.64340332 0.31018066 1.28680664 0.62036133 1.94970703 0.93994141 C17.26497114 8.39071692 30.68144195 18.29430554 43 30 C44.41071844 31.21527255 45.82693719 32.42420605 47.25 33.625 C58.00257309 43.03078616 69.86697945 57.07031116 76 70 C74.69813222 73.90560333 73.31354055 74.24650315 69.76171875 76.23046875 C68.64547119 76.86049805 67.52922363 77.49052734 66.37915039 78.13964844 C65.14864561 78.82234737 63.91809422 79.50496229 62.6875 80.1875 C61.4205977 80.89909589 60.15424785 81.61167616 58.88842773 82.32519531 C56.24968455 83.81160627 53.60858781 85.29370606 50.96582031 86.77294922 C45.39561321 89.89524966 39.85622101 93.07111602 34.31604004 96.24627686 C32.56838677 97.24663042 30.81914782 98.24415039 29.06933594 99.24072266 C23.58725918 102.36499232 18.11877428 105.50842391 12.6796875 108.70703125 C11.70572021 109.27583008 10.73175293 109.84462891 9.72827148 110.43066406 C7.91554637 111.49061111 6.10745647 112.55854011 4.30493164 113.63574219 C3.51207764 114.09754883 2.71922363 114.55935547 1.90234375 115.03515625 C1.21648193 115.4412915 0.53062012 115.84742676 -0.17602539 116.26586914 C-2 117 -2 117 -5 116 C-6.65625 113.8828125 -6.65625 113.8828125 -8.5 111.125 C-22.39648719 91.61938526 -42.70645214 79.99808822 -65.9375 74.75 C-90.43035624 70.86224504 -115.24639393 76.45050441 -135.55859375 90.80859375 C-154.87100857 105.78249417 -168.36969972 125.59199589 -172.5703125 149.9140625 C-174.90731803 168.96304225 -172.32770646 186.40966801 -165 204 C-164.69320312 204.75925781 -164.38640625 205.51851562 -164.0703125 206.30078125 C-154.60838446 227.34230694 -135.7088826 242.07175834 -115 251 C-91.54560523 259.71920438 -65.90349384 257.92608881 -43.04296875 248.39453125 C-28.25589015 241.53084868 -15.52335871 230.78712469 -6.54296875 217.19921875 C-5.15568649 215.22190251 -3.7247183 213.67431777 -2 212 C9.06058255 217.71743065 19.97275017 223.64128523 30.78613281 229.81347656 C39.87852078 234.98022376 49.0896222 239.91119555 58.33374023 244.79956055 C65.01344398 248.34463311 71.56471459 252.0272753 78 256 C64.74554512 286.12376108 35.24476399 311.54880005 7 327 C6.37834961 327.34369629 5.75669922 327.68739258 5.11621094 328.04150391 C-5.80817796 334.00764249 -17.16888248 338.19705049 -29 342 C-30.22589844 342.4021875 -31.45179688 342.804375 -32.71484375 343.21875 C-48.27375681 348.01169405 -64.06553856 349.52503345 -80.27905273 349.44604492 C-82.93356577 349.43751265 -85.58593005 349.46649751 -88.24023438 349.49804688 C-100.57211039 349.54749316 -112.02404396 347.87473682 -124 345 C-125.07170189 344.74588348 -125.07170189 344.74588348 -126.16505432 344.4866333 C-158.09619192 336.85338253 -186.27053887 320.50207521 -210 298 C-210.47147461 297.55575684 -210.94294922 297.11151367 -211.42871094 296.65380859 C-245.30353694 264.53112876 -264.6766729 218.96365421 -266.32421875 172.546875 C-267.43305145 120.32052776 -249.50060736 74.19183431 -214 36 C-200.14357198 21.59401338 -183.75288209 10.0928285 -166 1 C-165.39655762 0.68869141 -164.79311523 0.37738281 -164.17138672 0.05664062 C-148.02115511 -8.16083551 -130.81397058 -13.78434563 -113 -17 C-111.79214844 -17.22558594 -110.58429688 -17.45117188 -109.33984375 -17.68359375 C-71.98517972 -23.47656304 -33.70933825 -16.56707443 0 0 Z " fill="#FEFEFE" transform="translate(332,111)"/>
<path d="M0 0 C2.05388996 1.12653536 4.08348205 2.2858693 6.10546875 3.46875 C8.69848635 4.96288409 11.32676573 6.37555578 13.96875 7.78125 C24.93553787 13.62233493 35.78528764 19.66372967 46.58911133 25.80004883 C53.93272345 29.97019585 61.30296299 34.09028328 68.6875 38.1875 C69.81502686 38.81309814 70.94255371 39.43869629 72.10424805 40.08325195 C74.39911527 41.35603957 76.69411914 42.62858084 78.98925781 43.90087891 C98.52752481 54.73241605 118.03653462 65.61487185 137.52148438 76.54199219 C149.31446498 83.1545648 161.11600036 89.75102543 172.9375 96.3125 C176.31300181 98.18734569 179.68832017 100.06252083 183.06347656 101.93798828 C185.32553923 103.19472614 187.58791259 104.45090493 189.85058594 105.70654297 C211.36723544 117.65438592 211.36723544 117.65438592 219.25 122.375 C220.18457031 122.93316406 221.11914062 123.49132812 222.08203125 124.06640625 C224.72273034 126.0239394 226.43171187 128.22419019 228.4375 130.8125 C196.81445307 148.88281253 196.81445307 148.88281253 195.06100464 149.88478088 C193.33054168 150.87361904 191.60008529 151.86246869 189.86962891 152.85131836 C187.58028094 154.15949393 185.29089288 155.46759932 183.00146484 156.77563477 C177.50704985 159.91491305 172.01305773 163.05492333 166.52044678 166.19735718 C163.91303751 167.68905284 161.30540481 169.18035765 158.69775391 170.67163086 C157.44894373 171.38595287 156.20024433 172.10046858 154.95166016 172.81518555 C153.22586224 173.80305447 151.49965982 174.79021662 149.7734375 175.77734375 C148.78907715 176.3405835 147.8047168 176.90382324 146.79052734 177.48413086 C145.3575654 178.29308976 143.90931369 179.07659315 142.4375 179.8125 C141.84324219 178.80832031 141.24898438 177.80414063 140.63671875 176.76953125 C134.96449387 167.34710377 128.78432046 158.97886503 121.4375 150.8125 C120.56738281 149.82121094 119.69726562 148.82992187 118.80078125 147.80859375 C113.98334254 142.38620868 109.08269392 137.3663559 103.4375 132.8125 C102.52871094 132.06613281 101.61992187 131.31976563 100.68359375 130.55078125 C73.65012141 108.99843847 42.03857015 95.74563787 7.82495117 91.14013672 C5.91369344 90.87784938 4.00970507 90.56280347 2.109375 90.23046875 C-15.32982233 88.24536863 -33.40307108 89.26900817 -50.5625 92.8125 C-51.82900391 93.06193359 -51.82900391 93.06193359 -53.12109375 93.31640625 C-79.78213048 98.66445968 -105.07021007 110.11809725 -126.5625 126.8125 C-127.42617187 127.46605469 -128.28984375 128.11960938 -129.1796875 128.79296875 C-140.20587779 137.33562417 -150.09986345 146.70626719 -158.5625 157.8125 C-159.31144531 158.76898438 -160.06039062 159.72546875 -160.83203125 160.7109375 C-191.73701074 200.82949691 -203.70519509 250.10922185 -197.375 300.125 C-194.22849056 322.05170296 -186.27338812 342.98610342 -176.5625 362.8125 C-177.66078125 363.32683594 -177.66078125 363.32683594 -178.78125 363.8515625 C-187.77775424 368.19987288 -196.36447004 373.12906544 -204.97192383 378.19921875 C-213.37277734 383.14097362 -221.84447271 387.94152797 -230.36914062 392.66625977 C-235.51005139 395.52047199 -240.61424292 398.41674255 -245.6640625 401.4296875 C-246.62739502 401.99929199 -247.59072754 402.56889648 -248.58325195 403.15576172 C-250.40224924 404.23522963 -252.21376619 405.3274353 -254.01635742 406.43408203 C-254.82177979 406.90958496 -255.62720215 407.38508789 -256.45703125 407.875 C-257.15675049 408.29910156 -257.85646973 408.72320312 -258.57739258 409.16015625 C-260.5625 409.8125 -260.5625 409.8125 -262.7565918 409.12109375 C-264.5625 407.8125 -264.5625 407.8125 -265.5625 404.8125 C-265.65650902 403.32670498 -265.69515215 401.83706351 -265.69951439 400.34830379 C-265.70458893 399.42888121 -265.70966347 398.50945862 -265.71489179 397.56217474 C-265.71538955 396.55052411 -265.71588731 395.53887348 -265.71640015 394.49656677 C-265.7207824 393.42300133 -265.72516465 392.34943589 -265.7296797 391.24333817 C-265.74308853 387.62763712 -265.74925129 384.01196046 -265.75537109 380.39624023 C-265.76327048 377.81106963 -265.77153933 375.22590014 -265.78015137 372.64073181 C-265.80467293 364.86879337 -265.81930325 357.09684854 -265.83221143 349.32488331 C-265.8359239 347.12913946 -265.8398971 344.93339624 -265.8439641 342.73765302 C-265.8692039 329.09852525 -265.8912542 315.45939648 -265.90369225 301.82025051 C-265.90662189 298.66101007 -265.90958356 295.50176966 -265.91259766 292.3425293 C-265.91334371 291.55732661 -265.91408976 290.77212392 -265.91485842 289.9631272 C-265.92750532 277.25034754 -265.96071928 264.53770794 -266.00239949 251.82499372 C-266.04485467 238.76868625 -266.06839151 225.71245041 -266.07361281 212.65607411 C-266.07702315 205.32722994 -266.08873332 197.99860455 -266.12171555 190.66982841 C-266.15270459 183.77266864 -266.15811277 176.87589562 -266.14633179 169.97867775 C-266.14611093 167.44953364 -266.15442602 164.92037192 -266.17198563 162.39128876 C-266.19468732 158.93284105 -266.18637571 155.47577419 -266.17050171 152.01731873 C-266.19132484 150.52326536 -266.19132484 150.52326536 -266.21256864 148.9990291 C-266.12164224 140.93432515 -263.65141295 134.64320855 -258.58007812 128.35400391 C-252.26261503 122.97919079 -245.36955121 119.06041477 -238.0625 115.1875 C-236.77367579 114.49241533 -235.48560176 113.7959381 -234.19824219 113.09814453 C-231.58034169 111.67975886 -228.95997481 110.26610336 -226.33789062 108.85546875 C-220.79318749 105.86438636 -215.30275063 102.77708069 -209.8125 99.6875 C-207.76569596 98.53893604 -205.71882113 97.39049821 -203.671875 96.2421875 C-202.66576172 95.67725586 -201.65964844 95.11232422 -200.62304688 94.53027344 C-195.43844134 91.62034327 -190.25027228 88.7167795 -185.0625 85.8125 C-182.97915002 84.64586306 -180.89581668 83.47919641 -178.8125 82.3125 C-149.64583333 65.97916667 -120.47916667 49.64583333 -91.3125 33.3125 C-90.28068604 32.73467773 -89.24887207 32.15685547 -88.18579102 31.56152344 C-86.10817651 30.39807231 -84.03053989 29.23466067 -81.95288086 28.07128906 C-76.65686483 25.10575268 -71.36126742 22.1394729 -66.06640625 19.171875 C-60.86023543 16.25409642 -55.65243358 13.33924604 -50.44384766 10.42578125 C-47.68367283 8.88034529 -44.9256747 7.33108585 -42.16796875 5.78125 C-40.54956127 4.87485338 -38.93107688 3.96859408 -37.3125 3.0625 C-36.59199463 2.65612305 -35.87148926 2.24974609 -35.12915039 1.83105469 C-23.89186228 -4.44433164 -11.74720138 -6.15642633 0 0 Z " fill="#659AD1" transform="translate(265.5625,3.1875)"/>
<path d="M0 0 C3.02438119 1.67616307 4.3697166 4.42882387 6.0703125 7.328125 C12.93340862 18.48926375 20.93652793 28.55281652 29.9453125 38.078125 C31.13833984 39.36783203 31.13833984 39.36783203 32.35546875 40.68359375 C54.33528953 63.65797655 83.53360745 79.0750471 113.8828125 87.765625 C114.53685059 87.95600342 115.19088867 88.14638184 115.86474609 88.3425293 C129.92062919 92.18952619 143.59875922 93.5722106 158.12841797 93.46923828 C160.81139257 93.45317839 163.49285225 93.46917695 166.17578125 93.48828125 C181.44668545 93.50792863 196.54309152 92.00584011 211.1328125 87.265625 C212.3688623 86.87769775 212.3688623 86.87769775 213.62988281 86.48193359 C216.07625105 85.70251369 218.51211036 84.89763924 220.9453125 84.078125 C221.66348145 83.83690918 222.38165039 83.59569336 223.12158203 83.34716797 C243.89045904 76.24523705 263.4382191 65.60847471 279.9453125 51.078125 C281.20408203 49.98371094 281.20408203 49.98371094 282.48828125 48.8671875 C285.00919141 46.63940643 287.48591032 44.37356704 289.9453125 42.078125 C290.75742187 41.32015625 291.56953125 40.5621875 292.40625 39.78125 C302.03740288 30.48430116 310.13690814 20.02998951 316.95336914 8.52050781 C318.92097596 5.28373569 320.26945794 3.20537079 323.9453125 2.078125 C326.42114258 2.92993164 326.42114258 2.92993164 329.21484375 4.48828125 C330.25624512 5.05925537 331.29764648 5.63022949 332.37060547 6.21850586 C333.48838379 6.85280518 334.60616211 7.48710449 335.7578125 8.140625 C336.93300596 8.79245204 338.10896144 9.44290694 339.28564453 10.09204102 C342.85121511 12.06589759 346.39912812 14.06963997 349.9453125 16.078125 C350.94191895 16.64112305 351.93852539 17.20412109 352.96533203 17.78417969 C356.67227904 19.8799394 360.37777335 21.9781164 364.0769043 24.08764648 C373.20168847 29.27417475 382.45134307 34.21962949 391.72021484 39.14233398 C393.41331787 40.04254272 393.41331787 40.04254272 395.140625 40.9609375 C396.64133545 41.75588623 396.64133545 41.75588623 398.17236328 42.56689453 C400.0226143 43.57526341 401.84055576 44.64527034 403.62060547 45.77294922 C405.93695893 47.32290337 405.93695893 47.32290337 408.9453125 47.078125 C405.63432577 56.97358212 395.58067779 61.77277926 386.8203125 66.265625 C384.67998404 67.39392792 382.54068563 68.52418665 380.40234375 69.65625 C378.78513428 70.50799805 378.78513428 70.50799805 377.13525391 71.37695312 C372.21008909 74.00350666 367.35768524 76.75316711 362.5078125 79.515625 C360.60036795 80.59914766 358.69281491 81.68247936 356.78515625 82.765625 C355.8297998 83.30832031 354.87444336 83.85101563 353.89013672 84.41015625 C348.79370729 87.29680903 343.68201275 90.15612723 338.5703125 93.015625 C337.53285889 93.59618652 336.49540527 94.17674805 335.42651367 94.77490234 C331.21112166 97.13343294 326.99519493 99.49100691 322.77929688 101.84863281 C311.65560282 108.07006886 300.53718845 114.30010034 289.4453125 120.578125 C276.24887076 128.04733824 263.01399529 135.447489 249.77929688 142.84863281 C238.65560107 149.07006984 227.53734406 155.30037308 216.4453125 161.578125 C208.13917356 166.27695619 199.82822813 170.96711305 191.5078125 175.640625 C190.47140625 176.22457031 189.435 176.80851563 188.3671875 177.41015625 C170.96101612 187.17403744 170.96101612 187.17403744 162.3203125 187.390625 C160.87785156 187.44669922 160.87785156 187.44669922 159.40625 187.50390625 C150.45572573 186.40276952 142.41305635 181.36771764 134.6328125 177.078125 C133.58520752 176.50562012 132.53760254 175.93311523 131.45825195 175.34326172 C123.95288477 171.2257142 116.50684692 167.00933056 109.08813477 162.73803711 C101.95415997 158.63504983 94.76952148 154.62788702 87.5703125 150.640625 C78.18968508 145.44397248 68.83425625 140.20625749 59.50390625 134.91992188 C52.53694068 130.97390196 45.5574475 127.0508167 38.5703125 123.140625 C37.53261719 122.55990234 36.49492188 121.97917969 35.42578125 121.38085938 C32.26582285 119.61292726 29.10561672 117.84543886 25.9453125 116.078125 C12.8161828 108.73601761 -0.30434656 101.37983911 -13.39550781 93.97021484 C-20.39713405 90.00949333 -27.41048766 86.07010934 -34.4296875 82.140625 C-35.45634521 81.56505859 -36.48300293 80.98949219 -37.54077148 80.39648438 C-42.98790641 77.34483005 -48.44306265 74.30873558 -53.91015625 71.29296875 C-55.59455811 70.35988892 -55.59455811 70.35988892 -57.31298828 69.40795898 C-59.45057939 68.22418143 -61.59072078 67.04499237 -63.73388672 65.87133789 C-82.9597471 55.20179693 -82.9597471 55.20179693 -85.8671875 46.703125 C-85.9290625 46.166875 -85.9909375 45.630625 -86.0546875 45.078125 C-85.0646875 45.408125 -84.0746875 45.738125 -83.0546875 46.078125 C-80.48734839 45.03503606 -80.48734839 45.03503606 -77.69921875 43.38671875 C-76.61431152 42.77884521 -75.5294043 42.17097168 -74.41162109 41.54467773 C-73.22997132 40.86862721 -72.048498 40.19226819 -70.8671875 39.515625 C-69.64444434 38.82489121 -68.42129433 38.13487718 -67.19775391 37.44555664 C-58.42103176 32.48660947 -49.71022065 27.41314306 -41.01953125 22.30517578 C-32.46614188 17.28576179 -23.82775931 12.4286659 -15.16162109 7.60717773 C-14.17371582 7.05747314 -13.18581055 6.50776855 -12.16796875 5.94140625 C-10.86533081 5.21884644 -10.86533081 5.21884644 -9.53637695 4.48168945 C-7.78995484 3.49396877 -6.06718185 2.46383431 -4.36352539 1.40405273 C-2.0546875 0.078125 -2.0546875 0.078125 0 0 Z " fill="#004482" transform="translate(88.0546875,365.921875)"/>
<path d="M0 0 C8.53378893 7.12055 16.35100187 14.65914876 22 24.3125 C19.09092634 27.46371025 16.20075071 29.54245518 12.46875 31.640625 C11.36273438 32.26710937 10.25671875 32.89359375 9.1171875 33.5390625 C7.91148752 34.21359383 6.70575751 34.8880715 5.5 35.5625 C4.24179611 36.2727446 2.9839903 36.98369481 1.7265625 37.6953125 C-0.88518537 39.17265982 -3.49861742 40.64696069 -6.11328125 42.11914062 C-12.09170763 45.48859659 -18.04445041 48.9028181 -24 52.3125 C-26.32394736 53.6411001 -28.64830256 54.96898593 -30.97265625 56.296875 C-32.13819112 56.96287746 -33.30371844 57.62889312 -34.46923828 58.29492188 C-71.44140625 79.421875 -71.44140625 79.421875 -73.99609375 80.8815918 C-75.66157861 81.83336703 -77.32694377 82.78535176 -78.9921875 83.73754883 C-83.32133921 86.21259668 -87.65223517 88.68451459 -91.98635864 91.15084839 C-107.07204221 99.73636904 -122.0916406 108.4210916 -137 117.3125 C-138.93488237 114.41017644 -140.17307921 111.71616472 -141.5 108.5 C-141.9228125 107.48292969 -142.345625 106.46585937 -142.78125 105.41796875 C-151.43840276 83.35887758 -150.02159388 58.08415968 -140.89575195 36.4519043 C-136.06791874 25.61947688 -129.14729888 16.84776549 -121 8.3125 C-120.46117187 7.69890625 -119.92234375 7.0853125 -119.3671875 6.453125 C-89.32197679 -26.46072392 -33.85230418 -26.05247861 0 0 Z " fill="#659AD2" transform="translate(306,202.6875)"/>
<path d="M0 0 C1.21961426 0.64618286 1.21961426 0.64618286 2.46386719 1.30541992 C3.57000366 1.89069458 3.57000366 1.89069458 4.69848633 2.48779297 C5.45766357 2.92647705 6.21684082 3.36516113 6.99902344 3.81713867 C7.8766333 4.32011475 8.75424316 4.82309082 9.65844727 5.34130859 C10.60486084 5.88634033 11.55127441 6.43137207 12.52636719 6.99291992 C21.53626077 12.137173 30.61954138 17.1174131 39.77636719 21.99291992 C49.78403868 27.32381483 59.73417984 32.74156998 69.62744141 38.28149414 C73.88757776 40.65679484 78.17541784 42.9817227 82.46386719 45.30541992 C80.49236375 52.38207964 76.24807553 56.88641371 71.46386719 62.30541992 C70.83222656 63.02213867 70.20058594 63.73885742 69.54980469 64.47729492 C54.80927943 80.15870477 32.50901494 90.7300289 11.00683594 91.75073242 C-16.14923824 92.30105668 -40.03966729 85.85412906 -60.02490234 66.89990234 C-66.77801739 60.25972623 -73.55746567 52.98614823 -77.53613281 44.30541992 C-76.27941143 40.53525577 -75.2405095 40.29830589 -71.81347656 38.44213867 C-70.81251953 37.89235352 -69.8115625 37.34256836 -68.78027344 36.77612305 C-67.14348633 35.8934375 -67.14348633 35.8934375 -65.47363281 34.99291992 C-63.16919021 33.7279168 -60.86583015 32.4609399 -58.56347656 31.19213867 C-57.97488861 30.86881561 -57.38630066 30.54549255 -56.77987671 30.21237183 C-50.9702525 27.01367585 -45.25103009 23.66939676 -39.53613281 20.30541992 C-36.57538703 18.57712708 -33.61317753 16.85136205 -30.65087891 15.12573242 C-27.89442034 13.51480947 -25.14454046 11.89312886 -22.39553833 10.26953125 C-19.55535501 8.59968196 -16.70081051 6.95467218 -13.84863281 5.30541992 C-12.26211914 4.35989258 -12.26211914 4.35989258 -10.64355469 3.39526367 C-9.65548828 2.82936523 -8.66742188 2.2634668 -7.64941406 1.68041992 C-6.34677612 0.91858398 -6.34677612 0.91858398 -5.01782227 0.14135742 C-2.53613281 -0.69458008 -2.53613281 -0.69458008 0 0 Z " fill="#004482" transform="translate(246.5361328125,276.694580078125)"/>
</svg>
