<?xml version="1.0" encoding="UTF-8"?>
<svg version="1.1" xmlns="http://www.w3.org/2000/svg" width="225" height="225">
<path d="M0 0 C74.25 0 148.5 0 225 0 C225 74.25 225 148.5 225 225 C150.75 225 76.5 225 0 225 C0 150.75 0 76.5 0 0 Z " fill="#659AD2" transform="translate(0,0)"/>
<path d="M0 0 C74.25 0 148.5 0 225 0 C225 74.25 225 148.5 225 225 C150.75 225 76.5 225 0 225 C0 150.75 0 76.5 0 0 Z M88.6875 12.8125 C82.17504559 16.8724932 75.64762393 20.80075006 68.88696289 24.43432617 C62.07613297 28.12801347 55.37481834 32.02261704 48.65966797 35.88696289 C47.73883926 36.41676003 47.73883926 36.41676003 46.79940796 36.95726013 C45.57582253 37.6612581 44.35237116 38.36548912 43.12905884 39.06996155 C39.64448574 41.07190733 36.14003174 43.0298821 32.609375 44.94921875 C31.83674316 45.3781543 31.06411133 45.80708984 30.26806641 46.24902344 C28.90471112 47.00509698 27.53268199 47.74588609 26.14990234 48.46582031 C20.85369338 51.44820647 17.69622265 55.58440505 15 61 C14.20709897 64.46990077 14.17660775 67.7849374 14.22363281 71.33398438 C14.2131189 72.32545975 14.20260498 73.31693512 14.19177246 74.3384552 C14.16552943 77.59087581 14.18278863 80.84131216 14.203125 84.09375 C14.19907891 86.36861545 14.19325219 88.64347835 14.18572998 90.91833496 C14.17690469 95.67611493 14.18967542 100.43321706 14.21777344 105.19091797 C14.2519578 111.27400421 14.23226378 117.35550194 14.19633865 123.43852997 C14.17460451 128.13307555 14.18158203 132.82724767 14.19710541 137.52180481 C14.20109336 139.76398407 14.19624741 142.00619781 14.18222809 144.24833679 C14.16690036 147.38846991 14.19033584 150.52607006 14.22363281 153.66601562 C14.21148743 154.58264481 14.19934204 155.49927399 14.18682861 156.44367981 C14.32174749 163.34971955 16.57238942 167.73637659 21 173 C23.18030169 174.98128154 23.18030169 174.98128154 25.51171875 176.1171875 C26.3416333 176.57270996 27.17154785 177.02823242 28.02661133 177.49755859 C28.90470459 177.95211426 29.78279785 178.40666992 30.6875 178.875 C32.58116211 179.90545478 34.47438279 180.93672115 36.3671875 181.96875 C37.31561523 182.47664062 38.26404297 182.98453125 39.24121094 183.5078125 C43.31537745 185.71146788 47.31352506 188.03850578 51.3125 190.375 C52.87357929 191.28015255 54.43478002 192.18509566 55.99609375 193.08984375 C60.60567757 195.76789817 65.20881617 198.45691522 69.81054688 201.1484375 C71.84777008 202.33779152 73.88682711 203.52401015 75.92773438 204.70703125 C80.9232296 207.60371354 85.88973295 210.53333962 90.80859375 213.55859375 C91.73623535 214.11748291 92.66387695 214.67637207 93.61962891 215.25219727 C95.35372235 216.2972126 97.07714956 217.36024386 98.78662109 218.44506836 C104.86373189 222.06239621 109.96971833 223.05151797 117 222 C119.76423542 221.1969711 122.12631038 220.04103502 124.625 218.625 C125.62732666 218.09132812 125.62732666 218.09132812 126.64990234 217.546875 C128.78526708 216.3950391 130.89461387 215.20568959 133 214 C134.06541016 213.39043457 134.06541016 213.39043457 135.15234375 212.76855469 C139.46425691 210.28316171 143.74015771 207.74027709 148.00976562 205.18310547 C150.94415869 203.43873982 153.90741596 201.74988209 156.875 200.0625 C163.25267177 196.43382468 169.60426325 192.76151478 175.95019531 189.07763672 C180.23943341 186.58987862 184.53876151 184.1226903 188.85791016 181.68725586 C191.58379594 180.14504775 194.29373214 178.57633128 197 177 C198.34578125 176.21882813 198.34578125 176.21882813 199.71875 175.421875 C200.5128125 174.93203125 201.306875 174.4421875 202.125 173.9375 C202.78757813 173.53402344 203.45015625 173.13054687 204.1328125 172.71484375 C208.2189093 168.96213142 210.2018522 164.87594834 210.49447632 159.40893555 C210.51200722 157.65161503 210.50781089 155.89398936 210.48583984 154.13671875 C210.49153488 152.68901596 210.49153488 152.68901596 210.49734497 151.21206665 C210.50472554 148.03687545 210.48340234 144.86260923 210.4609375 141.6875 C210.45855146 139.47225044 210.45764809 137.25699883 210.4581604 135.04174805 C210.45503663 130.4049813 210.43850371 125.76852468 210.41162109 121.13183594 C210.37764225 115.19693155 210.36999286 109.2623676 210.37151146 103.32737732 C210.37096684 98.75480924 210.35998491 94.18231515 210.34550858 89.60977173 C210.3391574 87.42176879 210.33520562 85.2337575 210.33372116 83.04574585 C210.32937032 79.98478 210.31183076 76.92417017 210.29052734 73.86328125 C210.2918869 72.51491684 210.2918869 72.51491684 210.29327393 71.13931274 C210.21778129 63.69691515 209.45191565 57.54673158 204 52 C201.2560983 50.10324378 201.2560983 50.10324378 198.0625 48.4375 C196.80042962 47.74152267 195.53873443 47.04486471 194.27734375 46.34765625 C193.24843018 45.78522217 193.24843018 45.78522217 192.19873047 45.21142578 C188.14764368 42.9794146 184.13903541 40.67276182 180.125 38.375 C179.24078369 37.87025146 178.35656738 37.36550293 177.44555664 36.84545898 C170.60703718 32.93660619 163.79965216 28.9759982 157 25 C149.15682293 20.41841747 141.30989659 15.8437375 133.4375 11.3125 C132.58736328 10.81943359 131.73722656 10.32636719 130.86132812 9.81835938 C122.24579468 4.56830613 122.24579468 4.56830613 112.5625 2.625 C111.88316406 2.61726562 111.20382813 2.60953125 110.50390625 2.6015625 C102.2761789 3.91081085 95.61356479 8.46378739 88.6875 12.8125 Z " fill="#FDFDFE" transform="translate(0,0)"/>
<path d="M0 0 C1.2478776 4.85582743 1.16942662 9.64231902 1.19287109 14.62036133 C1.20513733 16.0652166 1.20513733 16.0652166 1.21765137 17.53926086 C1.24242122 20.72017811 1.25899818 23.90105103 1.2734375 27.08203125 C1.27876118 28.17071692 1.28408485 29.25940258 1.28956985 30.38107872 C1.31626244 36.14149648 1.33565144 41.90189284 1.35009766 47.66235352 C1.36344524 52.42394178 1.39131921 57.18510237 1.43212891 61.9465332 C1.481466 67.70357545 1.50621964 73.46022936 1.51332474 79.21747398 C1.5200318 81.40749033 1.53523957 83.5974982 1.55921555 85.78739357 C1.59089944 88.85587211 1.59089888 91.92285532 1.58349609 94.99145508 C1.59990143 95.8899115 1.61630676 96.78836792 1.63320923 97.71405029 C1.57199985 103.93313849 0.08112049 108.23908687 -4 113 C-6.47276557 115.03400141 -9.03579642 116.66181959 -11.8125 118.25 C-12.48603516 118.65734375 -13.15957031 119.0646875 -13.85351562 119.484375 C-17.79363178 121.83713335 -21.82236423 123.92774439 -25.93920898 125.95019531 C-29.75571781 127.89439481 -33.43105204 130.08451685 -37.125 132.25 C-38.81230061 133.2334151 -40.49980194 134.2164859 -42.1875 135.19921875 C-43.41919922 135.91730713 -43.41919922 135.91730713 -44.67578125 136.64990234 C-47.81480934 138.47330837 -50.9688428 140.26889677 -54.125 142.0625 C-58.55196737 144.58040219 -62.94122741 147.15034767 -67.31347656 149.76196289 C-70.85880082 151.87071036 -74.4247068 153.94255197 -78 156 C-78.6403418 156.37141113 -79.28068359 156.74282227 -79.94042969 157.12548828 C-81.73809459 158.15333074 -83.55127053 159.14431046 -85.375 160.125 C-86.39335938 160.68445313 -87.41171875 161.24390625 -88.4609375 161.8203125 C-94.28817322 163.76272441 -99.82264499 164.20364996 -105.65136719 161.99560547 C-108.41501495 160.56932335 -111.0449884 159.0147207 -113.6875 157.375 C-114.67153809 156.79177979 -115.65557617 156.20855957 -116.66943359 155.60766602 C-118.74381216 154.37673234 -120.81244142 153.13606318 -122.87548828 151.88623047 C-126.92777144 149.43991544 -131.01863209 147.06319357 -135.11230469 144.68701172 C-138.12461919 142.93772114 -141.13100424 141.17857068 -144.13671875 139.41796875 C-149.71566945 136.1575191 -155.32224459 132.94740345 -160.9375 129.75 C-163.46997528 128.3034528 -166.00195698 126.85604653 -168.53369141 125.40820312 C-170.19094282 124.46195227 -171.84949438 123.51797517 -173.50927734 122.57617188 C-175.88595407 121.22558459 -178.25609236 119.86415614 -180.625 118.5 C-181.33003662 118.10264648 -182.03507324 117.70529297 -182.76147461 117.29589844 C-186.23609172 115.28080182 -188.99980973 113.54920981 -191 110 C-191 109.34 -191 108.68 -191 108 C-188.75390625 106.40625 -188.75390625 106.40625 -185.5625 104.5 C-184.99136475 104.15686768 -184.42022949 103.81373535 -183.83178711 103.46020508 C-181.89246752 102.29888788 -179.94638937 101.14942433 -178 100 C-176.52070859 99.11869893 -175.04154538 98.23718265 -173.5625 97.35546875 C-172.06294042 96.46540341 -170.56294579 95.57607058 -169.0625 94.6875 C-168.35359619 94.26726562 -167.64469238 93.84703125 -166.91430664 93.4140625 C-156.00292419 87 -156.00292419 87 -152 87 C-150.36674616 88.9658982 -148.9026295 90.91515068 -147.4375 93 C-138.07855074 105.59498267 -124.40732211 114.53552244 -108.8125 117.5 C-106.88022654 117.71909658 -104.94121934 117.88445123 -103 118 C-101.88109375 118.06832031 -100.7621875 118.13664062 -99.609375 118.20703125 C-82.11136283 118.72734659 -65.62070999 112.63727504 -52.26171875 101.296875 C-47.97087549 96.93933469 -44.46876473 92.02719527 -41 87 C-45.07009466 83.50338248 -49.3757132 80.98494691 -54.0625 78.4375 C-61.53830034 74.35545405 -61.53830034 74.35545405 -64.30859375 72.22265625 C-66.0573759 70.70708391 -66.0573759 70.70708391 -69 71 C-69.680625 72.03125 -70.36125 73.0625 -71.0625 74.125 C-74.96523756 79.93783872 -80.99006489 82.75059297 -87.3125 85.375 C-98.41887712 87.2574368 -106.44666644 86.18156877 -116 80 C-123.091193 74.29621433 -128.26651569 65.82555808 -129.40625 56.7734375 C-129.71229384 45.67934842 -126.72904456 37.64504377 -119.125 29.5 C-111.80921278 22.7458855 -104.29968724 20.62443305 -94.48828125 20.72265625 C-85.83237725 21.41086362 -78.29802342 25.05846847 -72 31 C-69 34.6 -69 34.6 -69 37 C-67.90042969 36.34773438 -66.80085938 35.69546875 -65.66796875 35.0234375 C-52.251697 27.08540061 -52.251697 27.08540061 -46.625 24.0625 C-34.76928844 17.68282594 -23.15101606 10.83348409 -11.76171875 3.65625 C-3.64123295 -1.21374432 -3.64123295 -1.21374432 0 0 Z " fill="#02599C" transform="translate(209,59)"/>
<path d="M0 0 C5.5870168 4.81816128 9.73120992 9.99686738 13.69140625 16.2109375 C11.0282318 19.05514861 8.52030436 21.07745184 5.1015625 22.9375 C4.23466797 23.411875 3.36777344 23.88625 2.47460938 24.375 C1.57677734 24.85710937 0.67894531 25.33921875 -0.24609375 25.8359375 C-1.58704102 26.57070312 -1.58704102 26.57070312 -2.95507812 27.3203125 C-7.01354516 29.52580461 -10.99075195 31.55379658 -15.30859375 33.2109375 C-15.78296875 32.3446875 -16.25734375 31.4784375 -16.74609375 30.5859375 C-20.81975833 24.5184723 -27.88878798 20.69932485 -34.79296875 18.68359375 C-43.51822896 17.04422033 -51.73501279 17.33912736 -59.30859375 22.2109375 C-66.49201798 27.36057919 -71.50607618 33.79109305 -74.30859375 42.2109375 C-75.37581833 52.37439018 -74.25287739 60.95189265 -68.05859375 69.2109375 C-67.48109375 69.8709375 -66.90359375 70.5309375 -66.30859375 71.2109375 C-66.30859375 71.8709375 -66.30859375 72.5309375 -66.30859375 73.2109375 C-65.76074219 73.47648437 -65.21289062 73.74203125 -64.6484375 74.015625 C-62.98766707 74.86403193 -61.35668719 75.77190839 -59.75 76.71875 C-51.15572661 81.54646938 -43.93430256 82.83093616 -34.2890625 80.47265625 C-25.8266809 77.65958001 -19.81313813 73.95875383 -15.30859375 66.2109375 C-12.15460634 66.85358136 -9.74693205 67.95472843 -6.97265625 69.57421875 C-6.15539062 70.04923828 -5.338125 70.52425781 -4.49609375 71.01367188 C-3.65046875 71.51189453 -2.80484375 72.01011719 -1.93359375 72.5234375 C-0.67675781 73.25336914 -0.67675781 73.25336914 0.60546875 73.99804688 C5.06683776 76.60401949 9.43010925 79.28910357 13.69140625 82.2109375 C4.88504593 97.81160893 -9.48860628 109.04351245 -26.90625 113.94140625 C-46.03808633 117.48883074 -63.90910577 114.6936182 -80.19189453 103.97070312 C-93.0578458 94.73578564 -103.63912206 80.45372232 -106.91381836 64.8203125 C-107.66741085 59.83923861 -107.63627507 54.86398962 -107.62109375 49.8359375 C-107.63720703 48.77632813 -107.65332031 47.71671875 -107.66992188 46.625 C-107.67613313 36.48822736 -105.5815058 27.5357878 -100.68359375 18.6484375 C-100.33659424 18.01349365 -99.98959473 17.3785498 -99.63208008 16.72436523 C-90.67950879 0.9368847 -75.62351223 -9.04553281 -58.65625 -14.66796875 C-37.23794156 -19.76417192 -16.9193606 -13.11178875 0 0 Z " fill="#FCFDFD" transform="translate(155.30859375,62.7890625)"/>
<path d="M0 0 C3.26244587 3.05854301 5.94224878 6.22997831 8.625 9.8125 C17.89654207 21.44940755 33.13579489 29.99862137 47.9765625 31.7890625 C68.02544906 33.18782203 86.14757305 28.53781641 101.671875 15.36328125 C106.30276506 10.66246165 110.16349036 5.35478792 114 0 C117.66903451 1.99568045 121.33497563 3.99696571 125 6 C125.70511719 6.38285156 126.41023437 6.76570312 127.13671875 7.16015625 C129.43604026 8.42049161 131.71897249 9.70676788 134 11 C134.66999023 11.37737305 135.33998047 11.75474609 136.03027344 12.14355469 C138.35940918 13.46063145 140.68018917 14.79157677 143 16.125 C143.76715332 16.5571582 144.53430664 16.98931641 145.32470703 17.43457031 C146.04255371 17.85061523 146.76040039 18.26666016 147.5 18.6953125 C148.47453125 19.2524292 148.47453125 19.2524292 149.46875 19.82080078 C151 21 151 21 152 24 C148.51642083 27.71624866 145.0464137 30.43671127 140.6875 33.0625 C139.08455078 34.03896484 139.08455078 34.03896484 137.44921875 35.03515625 C135.0283624 36.41419447 132.64655163 37.69314558 130.15234375 38.91796875 C125.60388547 41.1570673 121.24701195 43.68701907 116.875 46.25 C115.18769939 47.2334151 113.50019806 48.2164859 111.8125 49.19921875 C110.99136719 49.67794434 110.17023438 50.15666992 109.32421875 50.64990234 C106.18519066 52.47330837 103.0311572 54.26889677 99.875 56.0625 C95.44803263 58.58040219 91.05877259 61.15034767 86.68652344 63.76196289 C83.14119918 65.87071036 79.5752932 67.94255197 76 70 C75.3596582 70.37141113 74.71931641 70.74282227 74.05957031 71.12548828 C72.26190541 72.15333074 70.44872947 73.14431046 68.625 74.125 C67.60664062 74.68445313 66.58828125 75.24390625 65.5390625 75.8203125 C59.71182678 77.76272441 54.17735501 78.20364996 48.34863281 75.99560547 C45.58498505 74.56932335 42.9550116 73.0147207 40.3125 71.375 C39.32846191 70.79177979 38.34442383 70.20855957 37.33056641 69.60766602 C35.25618784 68.37673234 33.18755858 67.13606318 31.12451172 65.88623047 C27.07222856 63.43991544 22.98136791 61.06319357 18.88769531 58.68701172 C15.87538081 56.93772114 12.86899576 55.17857068 9.86328125 53.41796875 C4.28433055 50.1575191 -1.32224459 46.94740345 -6.9375 43.75 C-9.46997528 42.3034528 -12.00195698 40.85604653 -14.53369141 39.40820312 C-16.19094282 38.46195227 -17.84949438 37.51797517 -19.50927734 36.57617188 C-21.88595407 35.22558459 -24.25609236 33.86415614 -26.625 32.5 C-27.33003662 32.10264648 -28.03507324 31.70529297 -28.76147461 31.29589844 C-32.23609172 29.28080182 -34.99980973 27.54920981 -37 24 C-37 23.34 -37 22.68 -37 22 C-34.75390625 20.40625 -34.75390625 20.40625 -31.5625 18.5 C-30.99136475 18.15686768 -30.42022949 17.81373535 -29.83178711 17.46020508 C-27.89246752 16.29888788 -25.94638937 15.14942433 -24 14 C-22.52070859 13.11869893 -21.04154538 12.23718265 -19.5625 11.35546875 C-18.06294042 10.46540341 -16.56294579 9.57607058 -15.0625 8.6875 C-14.35359619 8.26726562 -13.64469238 7.84703125 -12.91430664 7.4140625 C-9.00836305 5.11802289 -5.06076866 3.01488521 -1 1 C-0.67 0.67 -0.34 0.34 0 0 Z " fill="#024482" transform="translate(55,145)"/>
<path d="M0 0 C5.30907348 2.691692 10.43094807 6.05982558 13.51171875 11.2734375 C13.33007812 13.24951172 13.33007812 13.24951172 12.51171875 15.2734375 C10.83203125 16.57861328 10.83203125 16.57861328 8.63671875 17.71875 C7.41879639 18.36686646 7.41879639 18.36686646 6.17626953 19.02807617 C5.29696777 19.48029541 4.41766602 19.93251465 3.51171875 20.3984375 C1.67462865 21.374135 -0.16129087 22.35203939 -1.99609375 23.33203125 C-2.92067383 23.82300293 -3.84525391 24.31397461 -4.79785156 24.81982422 C-8.71262077 26.93493636 -12.54140018 29.18337208 -16.36328125 31.4609375 C-17.73942345 32.27761323 -19.11572299 33.09402388 -20.4921875 33.91015625 C-21.1536377 34.30251465 -21.81508789 34.69487305 -22.49658203 35.09912109 C-25.74949347 37.0170549 -29.02269165 38.89894502 -32.30078125 40.7734375 C-33.40035156 41.4025 -34.49992187 42.0315625 -35.6328125 42.6796875 C-37.89459403 43.94207719 -40.15786381 45.14490605 -42.48828125 46.2734375 C-46.54461176 38.41429714 -47.75137635 31.05680647 -46.48828125 22.2734375 C-43.32824428 12.58573291 -37.30136244 4.54105368 -28.17578125 -0.1640625 C-18.98463275 -4.32151912 -9.25767628 -3.81118936 0 0 Z " fill="#659AD1" transform="translate(126.48828125,82.7265625)"/>
<path d="M0 0 C1.96876871 0.95914373 3.90684171 1.9833923 5.8125 3.0625 C6.78832031 3.61035156 7.76414063 4.15820312 8.76953125 4.72265625 C9.87361328 5.35494141 9.87361328 5.35494141 11 6 C11 6.66 11 7.32 11 8 C11.66 8.061875 12.32 8.12375 13 8.1875 C17.18657836 9.32136497 20.42550992 11.59631064 24 14 C21.64677266 21.48754154 15.6521189 25.47450565 9 29 C1.68806319 32.01079751 -6.85646127 32.45242448 -14.33203125 29.83203125 C-19.70266045 27.25598346 -24.22336232 24.62942684 -28 20 C-28.8971875 18.9171875 -28.8971875 18.9171875 -29.8125 17.8125 C-31 16 -31 16 -31 14 C-24.21444652 8.90755367 -16.50197297 4.92728893 -9 1 C-8.33871094 0.59394531 -7.67742187 0.18789062 -6.99609375 -0.23046875 C-4.24236919 -1.29208076 -2.80337256 -0.87579202 0 0 Z " fill="#024482" transform="translate(116,114)"/>
<path d="M0 0 C2.64 0 5.28 0 8 0 C8 2.64 8 5.28 8 8 C10.31 8 12.62 8 15 8 C15 10.31 15 12.62 15 15 C12.69 15 10.38 15 8 15 C8 17.64 8 20.28 8 23 C5.36 23 2.72 23 0 23 C0 20.36 0 17.72 0 15 C-2.31 15 -4.62 15 -7 15 C-7 12.69 -7 10.38 -7 8 C-4.69 8 -2.38 8 0 8 C0 5.36 0 2.72 0 0 Z " fill="#E8F0F6" transform="translate(190,101)"/>
<path d="M0 0 C2.31 0 4.62 0 7 0 C7 2.64 7 5.28 7 8 C9.64 8 12.28 8 15 8 C15 10.31 15 12.62 15 15 C12.36 15 9.72 15 7 15 C7 17.31 7 19.62 7 22 C4.69 22 2.38 22 0 22 C0 19.69 0 17.38 0 15 C-2.31 15 -4.62 15 -7 15 C-7 12.69 -7 10.38 -7 8 C-4.69 8 -2.38 8 0 8 C0 5.36 0 2.72 0 0 Z " fill="#F4F7FA" transform="translate(163,101)"/>
</svg>
