<svg id="logosandtypes_com" xmlns="http://www.w3.org/2000/svg" viewBox="0 0 150 150"><style>.st1{fill:#007cc2}</style><path d="M0 0h150v150H0V0z" fill="none" id="Layer_3"/><g id="SAS"><path class="st1" d="M77.2 10c-4.4-.1-8.9.4-13.6 1.6C42.1 17 18 44.7 44.3 76.6L64.4 101c3 3.5 7.8 3.5 11.4.5 3.6-3 4.6-7.8 1.7-11.4l-1.7-2.2c-1.1-1.4-14.7-17.7-14.7-17.7-11.4-13.9-6.3-31 9.2-40.7C84 20.9 109 24 117.7 38.1 112.1 22 96.3 10.5 77.2 10z"/><path class="st1" d="M80.4 43.6c-2-.1-4.2.7-5.9 2.2-3.6 3-4.6 7.8-1.7 11.4l16.8 20.4c11.4 13.9 6.3 30.9-9.2 40.7-13.7 8.6-38.7 5.5-47.4-8.6 6.7 19.8 29.1 32.7 54 26.5 21.5-5.4 45.6-33 19.3-65L85.9 46.3c-1.5-1.8-3.5-2.7-5.5-2.7z"/></g></svg>