<svg xmlns="http://www.w3.org/2000/svg" viewBox="0 0 630 630">
  <rect width="630" height="630" fill="#3178c6"/>
  <path fill="#fff" d="M231.9 377.5h-75.8v-35.3H352v35.3h-75.5V568H231.9zm183.5-35.3c18.4 0 34.9 1.7 49.4 5.2 14.5 3.5 27 8.9 37.4 16.4l-22 32.1c-8.7-6-18.4-10.4-29.1-13.2-10.7-2.8-22.3-4.3-34.8-4.3-13.2 0-23.3 2.1-30.3 6.3-7 4.2-10.5 10-10.5 17.5 0 4.9 1.4 9.1 4.3 12.5 2.9 3.4 7.6 6.5 14.2 9.2 6.6 2.7 15.7 5.5 27.3 8.3 19.2 4.7 34.9 9.7 47.2 15.1 12.3 5.4 21.4 12.5 27.5 21.3 6.1 8.8 9.1 20.3 9.1 34.5 0 15.2-4 28.1-12.1 38.6-8.1 10.5-19.4 18.4-34 23.7-14.6 5.3-31.6 7.9-51 7.9-22 0-41.4-2.9-58.2-8.8-16.8-5.9-30.9-14.2-42.3-24.9l24.1-30.7c10.1 9.4 21.8 16.6 35.1 21.5 13.3 4.9 27.3 7.4 42 7.4 14.5 0 25.8-2.5 33.9-7.4 8.1-4.9 12.2-11.8 12.2-20.5 0-5.6-1.6-10.3-4.9-14.1-3.3-3.8-8.6-7.2-16-10.2-7.4-3-17.6-6.1-30.7-9.3-18.8-4.7-33.9-9.7-45.5-15.1-11.6-5.4-20.1-12.3-25.5-20.8-5.4-8.5-8.1-19.2-8.1-32.2 0-14.7 3.9-27.3 11.6-37.8 7.7-10.5 18.6-18.5 32.6-24 14-5.5 30.2-8.2 48.6-8.2z"/>
</svg>
